<?xml version="1.0" encoding="utf-8"?>
<!-- Generator: Adobe Illustrator 24.0.1, SVG Export Plug-In . SVG Version: 6.00 Build 0)  -->
<svg version="1.1" id="Layer_1" xmlns="http://www.w3.org/2000/svg" xmlns:xlink="http://www.w3.org/1999/xlink" x="0px" y="0px"
	 viewBox="0 0 512 512" style="enable-background:new 0 0 512 512;" xml:space="preserve">
<style type="text/css">
	.st0{fill:#ED4343;stroke:#ED4343;stroke-width:3.3406;stroke-miterlimit:10;}
	.st1{fill:#EA242E;stroke:#EA242E;stroke-width:3.3406;stroke-miterlimit:10;}
	.st2{fill:#EA242E;stroke:#EA242E;stroke-width:3.8106;stroke-miterlimit:10;}
	.st3{fill:#EA242E;}
	.st4{fill:#383838;}
</style>
<g>
	<path class="st0" d="M306.69,166.46c-1.92,1.29-3.79,2.54-5.7,3.83c-0.22-0.4-0.45-0.8-0.67-1.16
		C302.45,168.24,304.55,167.35,306.69,166.46z"/>
	<path class="st0" d="M306.69,166.46c-1.92,1.29-3.79,2.54-5.7,3.83c-0.22-0.4-0.45-0.8-0.67-1.16
		C302.45,168.24,304.55,167.35,306.69,166.46z"/>
	<g>
		<path class="st1" d="M239.92,138.84c-3.7,0.4-7.3,1.11-10.78,2.18c-4.32-21.11-8.64-42.23-12.96-63.34
			c4.23-1.11,8.55-1.96,12.96-2.63C232.75,96.3,236.35,117.59,239.92,138.84z"/>
		<path class="st1" d="M253.32,73.76c-0.4,21.65-0.76,43.34-1.16,64.99c-1.83-0.18-3.65-0.27-5.48-0.27c-1.83,0-3.65,0.09-5.43,0.27
			c-0.36-21.6-0.76-43.21-1.16-64.81c2.67-0.22,5.39-0.31,8.15-0.31C249.94,73.63,251.63,73.68,253.32,73.76z"/>
		<path class="st1" d="M278.22,77.19c-4.77,21.25-9.49,42.49-14.21,63.74c-3.47-1.02-7.08-1.74-10.78-2.14
			c3.96-21.34,7.97-42.67,11.94-64.01C269.63,75.32,273.95,76.13,278.22,77.19z"/>
		<path class="st1" d="M217.38,145.79c-3.25,1.74-6.28,3.74-9.13,6.06c-12.65-17.24-25.34-34.48-37.99-51.71
			c3.47-2.72,7.08-5.21,10.87-7.53C193.19,110.33,205.26,128.06,217.38,145.79z"/>
		<path class="st1" d="M207.31,152.56c-2.85,2.32-5.48,4.9-7.84,7.71c-15.55-14.65-31.13-29.31-46.68-43.96
			c2.94-3.3,6.06-6.41,9.31-9.4C177.2,122.09,192.26,137.33,207.31,152.56z"/>
		<path class="st1" d="M228.43,141.25c-3.52,1.02-6.9,2.45-10.16,4.1c-8.95-19.47-17.95-38.93-26.9-58.39
			c3.92-1.96,7.97-3.74,12.12-5.26C211.81,101.56,220.1,121.38,228.43,141.25z"/>
		<path class="st1" d="M324.28,98.62c-13.05,17.73-26.1,35.5-39.11,53.23c-2.85-2.32-5.92-4.32-9.13-6.06
			c12.38-18.13,24.81-36.3,37.19-54.47C317.06,93.54,320.76,95.99,324.28,98.62z"/>
		<path class="st1" d="M342.41,114.92c-16.12,15.14-32.25,30.24-48.37,45.39c-2.41-2.81-4.99-5.35-7.79-7.66
			c15.59-15.68,31.18-31.36,46.72-46.99C336.26,108.55,339.47,111.67,342.41,114.92z"/>
		<path class="st1" d="M302.59,85.75c-9.13,19.87-18.26,39.73-27.44,59.6c-3.25-1.65-6.64-3.03-10.16-4.1
			c8.46-20.18,16.93-40.31,25.34-60.49C294.53,82.14,298.62,83.83,302.59,85.75z"/>
		<path class="st1" d="M368.82,158.53c-20.98,7.66-41.96,15.37-62.94,23.03c-1.25-3.96-2.9-7.71-4.9-11.27
			c1.92-1.29,3.79-2.54,5.7-3.83c18.53-7.66,37.06-15.37,55.59-23.07C364.81,148.24,366.99,153.32,368.82,158.53z"/>
		<path class="st1" d="M374.84,184.95c-22.11,3.14-44.23,6.32-66.35,9.46c-0.4-4.14-1.23-8.14-2.45-12.04
			c2.14-0.87,4.23-1.7,6.37-2.56c19.72-3.65,39.44-7.34,59.17-11.03C373.05,174.05,374.13,179.47,374.84,184.95z"/>
		<path class="st1" d="M356.48,133.23c-16.61,11.09-33.18,22.18-49.8,33.23c-2.14,0.89-4.23,1.78-6.37,2.67
			c-1.78-3.03-3.79-5.83-6.06-8.51c18-12.96,35.95-25.97,53.94-38.97C351.23,125.34,353.99,129.17,356.48,133.23z"/>
		<path class="st1" d="M192.03,171c-1.74,3.21-3.21,6.59-4.37,10.11c-20.09-7.3-40.13-14.65-60.22-21.96
			c1.43-4.19,3.12-8.28,5.03-12.25C152.35,154.92,172.17,162.98,192.03,171z"/>
		<path class="st1" d="M187.18,182.58c-1.07,3.47-1.83,7.08-2.23,10.78c-21.16-3.52-42.27-7.04-63.43-10.56
			c0.67-4.41,1.51-8.73,2.63-12.96C145.18,174.07,166.16,178.3,187.18,182.58z"/>
		<path class="st1" d="M198.85,160.98c-2.36,2.81-4.45,5.83-6.28,9.04c-18.17-11.22-36.39-22.4-54.56-33.58
			c2.27-3.83,4.72-7.53,7.35-11.05C163.17,137.24,180.99,149.08,198.85,160.98z"/>
		<rect x="119.41" y="195.88" class="st2" width="258.57" height="14.2"/>
	</g>
	<path class="st3" d="M240.83,264.6c-3.7-0.4-7.3-1.11-10.78-2.18c-4.32,21.11-8.64,42.23-12.96,63.34
		c4.23,1.11,8.55,1.96,12.96,2.63C233.66,307.14,237.27,285.85,240.83,264.6z"/>
	<path class="st3" d="M254.24,329.68c-0.4-21.65-0.76-43.34-1.16-64.99c-1.83,0.18-3.65,0.27-5.48,0.27c-1.83,0-3.65-0.09-5.43-0.27
		c-0.36,21.6-0.76,43.21-1.16,64.81c2.67,0.22,5.39,0.31,8.15,0.31C250.85,329.81,252.54,329.76,254.24,329.68z"/>
	<path class="st3" d="M279.14,326.25c-4.77-21.25-9.49-42.49-14.21-63.74c-3.47,1.02-7.08,1.74-10.78,2.14
		c3.96,21.34,7.97,42.67,11.94,64.01C270.54,328.12,274.86,327.32,279.14,326.25z"/>
	<path class="st3" d="M218.29,257.65c-3.25-1.74-6.28-3.74-9.13-6.06c-12.65,17.24-25.34,34.48-37.99,51.71
		c3.47,2.72,7.08,5.21,10.87,7.53C194.11,293.11,206.18,275.38,218.29,257.65z"/>
	<path class="st3" d="M208.23,250.88c-2.85-2.32-5.48-4.9-7.84-7.71c-15.55,14.65-31.13,29.31-46.68,43.96
		c2.94,3.3,6.06,6.41,9.31,9.4C178.12,281.35,193.17,266.11,208.23,250.88z"/>
	<path class="st3" d="M229.34,262.19c-3.52-1.02-6.9-2.45-10.16-4.1c-8.95,19.47-17.95,38.93-26.9,58.39
		c3.92,1.96,7.97,3.74,12.12,5.26C212.72,301.88,221.01,282.06,229.34,262.19z"/>
	<path class="st3" d="M325.19,304.82c-13.05-17.73-26.1-35.5-39.11-53.23c-2.85,2.32-5.92,4.32-9.13,6.06
		c12.38,18.13,24.81,36.3,37.19,54.47C317.98,309.9,321.67,307.45,325.19,304.82z"/>
	<path class="st3" d="M343.32,288.52c-16.12-15.14-32.25-30.24-48.37-45.39c-2.41,2.81-4.99,5.35-7.79,7.66
		c15.59,15.68,31.18,31.36,46.72,46.99C337.17,294.89,340.38,291.77,343.32,288.52z"/>
	<path class="st3" d="M303.5,317.69c-9.13-19.87-18.26-39.73-27.44-59.6c-3.25,1.65-6.64,3.03-10.16,4.1
		c8.46,20.18,16.93,40.31,25.34,60.49C295.44,321.3,299.54,319.61,303.5,317.69z"/>
	<path class="st3" d="M357.4,270.21c-18.61-12.05-37.22-24.1-55.83-36.15c-0.73,1.12-1.51,2.26-2.33,3.42
		c-1.36,1.91-2.72,3.68-4.06,5.34c18,12.96,35.95,25.97,53.94,38.97C352.14,278.1,354.9,274.27,357.4,270.21z"/>
	<path class="st3" d="M192.95,232.44c-1.74-3.21-3.21-6.59-4.37-10.11c-20.09,7.3-40.13,14.65-60.22,21.96
		c1.43,4.19,3.12,8.28,5.03,12.25C153.26,248.52,173.08,240.46,192.95,232.44z"/>
	<path class="st3" d="M188.09,220.86c-1.07-3.47-1.83-7.08-2.23-10.78c-21.16,3.52-42.27,7.04-63.43,10.56
		c0.67,4.41,1.51,8.73,2.63,12.96C146.09,229.37,167.07,225.14,188.09,220.86z"/>
	<path class="st3" d="M199.76,242.46c-2.36-2.81-4.45-5.83-6.28-9.04c-18.17,11.22-36.39,22.4-54.56,33.58
		c2.27,3.83,4.72,7.53,7.35,11.05C164.08,266.2,181.9,254.36,199.76,242.46z"/>
</g>
<g>
	<g>
		<path class="st4" d="M133.96,401.42c-2.78,0-5.12-0.47-7.01-1.42c-1.89-0.94-3.31-2.39-4.27-4.34s-1.44-4.43-1.44-7.44
			c0-3.04,0.48-5.53,1.44-7.46c0.96-1.94,2.38-3.38,4.25-4.32c1.87-0.94,4.17-1.42,6.89-1.42c2.56,0,4.72,0.46,6.48,1.37
			c1.76,0.91,3.09,2.32,3.98,4.22c0.9,1.9,1.34,4.36,1.34,7.37v1.73h-17.62c0.06,1.47,0.3,2.72,0.7,3.74
			c0.4,1.02,1.02,1.78,1.87,2.28c0.85,0.5,1.98,0.74,3.38,0.74c0.77,0,1.46-0.1,2.09-0.29c0.62-0.19,1.16-0.48,1.61-0.86
			c0.45-0.38,0.8-0.86,1.06-1.44c0.26-0.58,0.38-1.23,0.38-1.97h6.53c0,1.6-0.29,2.99-0.86,4.18c-0.58,1.18-1.38,2.17-2.4,2.95
			c-1.02,0.78-2.25,1.38-3.67,1.78C137.26,401.22,135.69,401.42,133.96,401.42z M128.1,385.48h10.66c0-0.96-0.12-1.79-0.36-2.5
			c-0.24-0.7-0.57-1.28-0.98-1.73c-0.42-0.45-0.92-0.78-1.51-0.98c-0.59-0.21-1.26-0.31-1.99-0.31c-1.22,0-2.23,0.2-3.05,0.6
			c-0.82,0.4-1.44,1.01-1.87,1.82C128.56,383.2,128.26,384.24,128.1,385.48z"/>
		<path class="st4" d="M150.52,400.84V375.6h5.52l0.53,3.46h0.34c0.58-0.83,1.27-1.55,2.09-2.16c0.82-0.61,1.74-1.07,2.76-1.39
			c1.02-0.32,2.14-0.48,3.36-0.48c1.66,0,3.12,0.3,4.37,0.91c1.25,0.61,2.22,1.57,2.9,2.88c0.69,1.31,1.03,3.02,1.03,5.14v16.9
			h-6.67V385c0-0.8-0.1-1.48-0.29-2.04c-0.19-0.56-0.47-1.02-0.84-1.39c-0.37-0.37-0.82-0.63-1.37-0.79
			c-0.54-0.16-1.15-0.24-1.82-0.24c-0.99,0-1.89,0.24-2.69,0.72c-0.8,0.48-1.42,1.14-1.87,1.97c-0.45,0.83-0.67,1.79-0.67,2.88
			v14.74H150.52z"/>
		<path class="st4" d="M188.34,401.42c-2.08,0-3.88-0.47-5.4-1.42c-1.52-0.94-2.7-2.39-3.53-4.34c-0.83-1.95-1.25-4.45-1.25-7.49
			c0-3.04,0.42-5.53,1.27-7.46c0.85-1.94,2.02-3.37,3.5-4.3c1.49-0.93,3.21-1.39,5.16-1.39c1.09,0,2.1,0.12,3.05,0.36
			c0.94,0.24,1.78,0.62,2.5,1.13c0.72,0.51,1.34,1.14,1.85,1.87h0.29v-12.24h6.67v34.7h-5.47l-0.53-3.41h-0.34
			c-0.83,1.34-1.92,2.34-3.26,3C191.51,401.09,190.01,401.42,188.34,401.42z M190.45,395.95c1.25,0,2.26-0.29,3.05-0.86
			c0.78-0.58,1.37-1.41,1.75-2.5c0.38-1.09,0.58-2.38,0.58-3.89v-0.86c0-1.12-0.1-2.14-0.31-3.07c-0.21-0.93-0.54-1.7-0.98-2.33
			c-0.45-0.62-1.01-1.1-1.68-1.44c-0.67-0.34-1.47-0.5-2.4-0.5c-1.34,0-2.42,0.26-3.22,0.79c-0.8,0.53-1.38,1.33-1.73,2.4
			c-0.35,1.07-0.53,2.41-0.53,4.01v1.1c0,1.6,0.18,2.93,0.53,3.98c0.35,1.06,0.93,1.85,1.73,2.38
			C188.04,395.68,189.11,395.95,190.45,395.95z"/>
		<path class="st4" d="M208.6,371.9v-5.76h6.67v5.76H208.6z M208.6,400.84V375.6h6.67v25.25H208.6z"/>
		<path class="st4" d="M221.41,400.84V375.6h5.52l0.53,3.46h0.34c0.54-0.83,1.19-1.55,1.94-2.16c0.75-0.61,1.6-1.07,2.54-1.39
			c0.94-0.32,1.96-0.48,3.05-0.48c1.6,0,2.98,0.32,4.15,0.96c1.17,0.64,2.07,1.66,2.71,3.07h0.34c0.54-0.83,1.2-1.55,1.97-2.16
			c0.77-0.61,1.65-1.07,2.64-1.39c0.99-0.32,2.05-0.48,3.17-0.48c1.6,0,2.98,0.29,4.15,0.86c1.17,0.58,2.09,1.51,2.76,2.81
			c0.67,1.3,1.01,2.97,1.01,5.02v17.14h-6.67v-15.94c0-0.8-0.09-1.48-0.26-2.04c-0.18-0.56-0.42-1.01-0.74-1.34
			c-0.32-0.34-0.72-0.58-1.2-0.74s-0.99-0.24-1.54-0.24c-0.9,0-1.7,0.24-2.4,0.72c-0.7,0.48-1.26,1.14-1.66,1.97
			c-0.4,0.83-0.6,1.79-0.6,2.88v14.74h-6.67v-15.94c0-0.8-0.09-1.48-0.26-2.04c-0.18-0.56-0.42-1.01-0.74-1.34
			c-0.32-0.34-0.71-0.58-1.18-0.74c-0.46-0.16-0.98-0.24-1.56-0.24c-0.86,0-1.66,0.24-2.38,0.72c-0.72,0.48-1.28,1.14-1.68,1.97
			c-0.4,0.83-0.6,1.79-0.6,2.88v14.74H221.41z"/>
		<path class="st4" d="M270.85,401.42c-0.83,0-1.72-0.1-2.66-0.29c-0.94-0.19-1.83-0.54-2.66-1.03c-0.83-0.5-1.51-1.22-2.04-2.16
			c-0.53-0.94-0.79-2.15-0.79-3.62c0-1.76,0.38-3.22,1.15-4.37c0.77-1.15,1.86-2.06,3.29-2.71s3.13-1.11,5.11-1.37
			c1.98-0.26,4.18-0.38,6.58-0.38v-1.87c0-0.74-0.12-1.38-0.36-1.92s-0.66-0.98-1.25-1.3c-0.59-0.32-1.42-0.48-2.47-0.48
			s-1.91,0.13-2.57,0.38c-0.66,0.26-1.12,0.58-1.39,0.98c-0.27,0.4-0.41,0.84-0.41,1.32v0.58h-6.48c-0.03-0.16-0.05-0.31-0.05-0.46
			c0-0.14,0-0.33,0-0.55c0-1.47,0.45-2.74,1.34-3.82c0.9-1.07,2.16-1.9,3.79-2.47s3.54-0.86,5.71-0.86c2.33,0,4.3,0.3,5.88,0.91
			c1.58,0.61,2.8,1.5,3.65,2.69c0.85,1.18,1.27,2.67,1.27,4.46v11.47c0,0.58,0.17,1,0.5,1.27c0.34,0.27,0.71,0.41,1.13,0.41h1.58
			v4.37c-0.32,0.16-0.82,0.33-1.49,0.5c-0.67,0.17-1.49,0.26-2.45,0.26c-0.93,0-1.75-0.14-2.47-0.41c-0.72-0.27-1.32-0.66-1.8-1.15
			c-0.48-0.5-0.82-1.1-1.01-1.8h-0.34c-0.54,0.67-1.21,1.26-1.99,1.78s-1.7,0.91-2.74,1.2S272.2,401.42,270.85,401.42z
			 M273.11,396.38c0.9,0,1.7-0.14,2.4-0.41c0.7-0.27,1.3-0.64,1.78-1.1c0.48-0.46,0.86-1.03,1.13-1.7c0.27-0.67,0.41-1.39,0.41-2.16
			v-1.39c-1.79,0-3.39,0.12-4.8,0.36c-1.41,0.24-2.52,0.65-3.34,1.22c-0.82,0.58-1.22,1.38-1.22,2.4c0,0.58,0.14,1.07,0.43,1.49
			c0.29,0.42,0.7,0.74,1.25,0.96C271.68,396.27,272.34,396.38,273.11,396.38z"/>
		<path class="st4" d="M292.02,400.84V375.6h5.52l0.53,3.94h0.34c0.32-0.83,0.74-1.59,1.25-2.28c0.51-0.69,1.15-1.24,1.92-1.66
			c0.77-0.42,1.66-0.62,2.69-0.62c0.54,0,1.04,0.06,1.49,0.17c0.45,0.11,0.78,0.22,1.01,0.31v6.05h-2.06
			c-0.99,0-1.86,0.14-2.62,0.41c-0.75,0.27-1.38,0.7-1.9,1.27c-0.51,0.58-0.89,1.28-1.13,2.11s-0.36,1.81-0.36,2.93v12.62H292.02z"
			/>
		<path class="st4" d="M317.8,401.42c-1.6,0-2.9-0.29-3.89-0.86c-0.99-0.58-1.71-1.35-2.16-2.33c-0.45-0.98-0.67-2.06-0.67-3.24
			v-14.26h-3.12v-5.14h3.36l1.25-7.2h5.18v7.2h4.61v5.14h-4.61v13.15c0,0.77,0.17,1.35,0.53,1.75c0.35,0.4,0.93,0.6,1.73,0.6h2.35
			v4.42c-0.38,0.13-0.83,0.25-1.34,0.36c-0.51,0.11-1.06,0.21-1.63,0.29S318.28,401.42,317.8,401.42z"/>
		<path class="st4" d="M327.49,400.84v-6.86h6.96v6.86H327.49z"/>
		<path class="st4" d="M348.08,401.42c-0.83,0-1.72-0.1-2.66-0.29c-0.94-0.19-1.83-0.54-2.66-1.03c-0.83-0.5-1.51-1.22-2.04-2.16
			c-0.53-0.94-0.79-2.15-0.79-3.62c0-1.76,0.38-3.22,1.15-4.37c0.77-1.15,1.86-2.06,3.29-2.71c1.42-0.66,3.13-1.11,5.11-1.37
			c1.98-0.26,4.18-0.38,6.58-0.38v-1.87c0-0.74-0.12-1.38-0.36-1.92c-0.24-0.54-0.66-0.98-1.25-1.3c-0.59-0.32-1.42-0.48-2.47-0.48
			c-1.06,0-1.91,0.13-2.57,0.38c-0.66,0.26-1.12,0.58-1.39,0.98s-0.41,0.84-0.41,1.32v0.58h-6.48c-0.03-0.16-0.05-0.31-0.05-0.46
			c0-0.14,0-0.33,0-0.55c0-1.47,0.45-2.74,1.34-3.82c0.9-1.07,2.16-1.9,3.79-2.47s3.54-0.86,5.71-0.86c2.34,0,4.3,0.3,5.88,0.91
			c1.58,0.61,2.8,1.5,3.65,2.69c0.85,1.18,1.27,2.67,1.27,4.46v11.47c0,0.58,0.17,1,0.5,1.27c0.34,0.27,0.71,0.41,1.13,0.41h1.58
			v4.37c-0.32,0.16-0.82,0.33-1.49,0.5c-0.67,0.17-1.49,0.26-2.45,0.26c-0.93,0-1.75-0.14-2.47-0.41s-1.32-0.66-1.8-1.15
			c-0.48-0.5-0.82-1.1-1.01-1.8h-0.34c-0.54,0.67-1.21,1.26-1.99,1.78c-0.79,0.51-1.7,0.91-2.74,1.2
			C350.62,401.28,349.43,401.42,348.08,401.42z M350.34,396.38c0.9,0,1.7-0.14,2.4-0.41c0.7-0.27,1.3-0.64,1.78-1.1
			c0.48-0.46,0.86-1.03,1.13-1.7c0.27-0.67,0.41-1.39,0.41-2.16v-1.39c-1.79,0-3.39,0.12-4.8,0.36c-1.41,0.24-2.52,0.65-3.34,1.22
			s-1.22,1.38-1.22,2.4c0,0.58,0.14,1.07,0.43,1.49c0.29,0.42,0.7,0.74,1.25,0.96C348.92,396.27,349.57,396.38,350.34,396.38z"/>
		<path class="st4" d="M367.28,400.84v-2.83l12.34-17.28h-11.57v-5.14h21.22v2.74l-12.38,17.33h12.86v5.18H367.28z"/>
	</g>
</g>
</svg>
